<?xml version="1.0" encoding="UTF-8"?>
<!-- Generator: Adobe Illustrator 27.9.0, SVG Export Plug-In . SVG Version: 6.00 Build 0)  -->
<svg version="1.1" id="Слой_1" xmlns="http://www.w3.org/2000/svg" xmlns:xlink="http://www.w3.org/1999/xlink" x="0px" y="0px" viewBox="0 0 706 517" style="enable-background:new 0 0 706 517;" xml:space="preserve">
<style type="text/css">
	.st0{fill:none;stroke:#9B7FE1;stroke-width:2;}
	.st1{fill:none;stroke:#CAC0E3;stroke-width:2;}
	.st2{fill:none;stroke:#B2A0E2;stroke-width:2;}
	.st3{fill:none;stroke:#7F5EE8;stroke-width:2;}
	.st4{fill:none;stroke:#673EE6;stroke-width:2;}
	.st5{fill:none;stroke:#967FE9;stroke-width:2;}
	.st6{fill:#E6E1DC;}
	.st7{fill:#501DE5;}
	.st8{fill:#AD9FEA;}
	.st9{fill:#7A4AD8;}
	.st10{fill:#7E5EE7;}
	.st11{fill:#501999;}
</style>
<g>
	<path vector-effect="non-scaling-stroke" class="st0" d="M467.2,225c0-0.1-0.1-0.3-0.3-0.3h-12.4c-0.1,0-0.3,0.1-0.3,0.3v61.9   c0,0.1,0.1,0.3,0.3,0.3H467c0.1,0,0.3-0.1,0.3-0.3V225"/>
	<path vector-effect="non-scaling-stroke" class="st1" d="M310.4,233.1c0-4-3.3-7.3-7.3-7.3s-7.3,3.3-7.3,7.3s3.3,7.3,7.3,7.3   S310.4,237.1,310.4,233.1"/>
	<path vector-effect="non-scaling-stroke" class="st2" d="M256.7,286.2c-0.3-0.1-0.2,0.1,0.2,0.6c0.2,0.3,0.5,0.4,0.8,0.4   c4.1,0,8.3,0,12.7,0c0.2,0,0.4-0.1,0.6-0.3c0.2-0.2,0.2-0.5,0.1-0.8"/>
	<path vector-effect="non-scaling-stroke" class="st1" d="M271.1,286.2l21-58.8c0.1-0.3,0-0.5-0.4-0.5l-13.1,0   c-0.3,0-0.6,0.2-0.7,0.5l-13.9,39.6"/>
	<path vector-effect="non-scaling-stroke" class="st0" d="M264.1,266.9l-13.9-39.5c-0.1-0.4-0.4-0.6-0.8-0.6l-12.9,0   c-0.2,0-0.4,0.2-0.4,0.5c0,0,0,0.1,0,0.1l20.7,58.7"/>
	<path vector-effect="non-scaling-stroke" class="st3" d="M264.1,266.9c-0.1,0.1-0.1,0.2,0.1,0.3"/>
	<path vector-effect="non-scaling-stroke" class="st4" d="M264.2,267.2c-0.4,0.3-0.7,0.6-0.8,1c-1.9,5.8-4.1,11.8-6.6,18"/>
	<path vector-effect="non-scaling-stroke" class="st5" d="M271.1,286.2l-7-18.9"/>
	<path vector-effect="non-scaling-stroke" class="st0" d="M336.7,275.3c-0.3,1.4-1.8,2.3-3.2,2.2c-4-0.2-7.7-1.6-11-4.4   c-0.3-0.2-0.5-0.2-0.6,0.1l-5.6,8c-0.3,0.4-0.2,0.7,0.2,1c6.6,4.9,13.8,6.6,21.6,5.3c8.7-1.5,14-9.5,10.4-17.9   c-1.6-3.8-5.5-6.2-9.4-7.5c-2.9-0.9-5.5-2-7.9-3.2c-0.9-0.4-1.3-1.5-0.8-2.4c0.2-0.4,0.5-0.7,0.9-0.9c3.3-1.5,8.3,1.3,10.7,3.4   c0.4,0.3,0.7,0.3,0.9-0.1l5.7-8.7c0.1-0.2,0.1-0.4-0.1-0.5c0,0,0,0,0,0c-3.6-2.4-8.4-4.7-12.7-5c-8.8-0.6-19.1,3.6-18.1,14.2   c0.9,9.1,8.8,11.3,16.2,13.5c1,0.3,1.9,0.9,2.7,1.8C336.7,274.7,336.8,275,336.7,275.3"/>
	<path vector-effect="non-scaling-stroke" class="st1" d="M432.8,286.8L446,287c0.4,0,0.5-0.2,0.5-0.5l-0.2-14.3"/>
	<path vector-effect="non-scaling-stroke" class="st2" d="M446.4,272.2l0.4-6.2"/>
	<path vector-effect="non-scaling-stroke" class="st0" d="M446.7,266c-1.2-10.1-5.8-16.6-14.1-19.7c-3.8-1.4-7.4-1.9-10.8-1.3   c-19.3,3.3-25.2,26.8-10.1,38.7c5.8,4.6,12.8,5.6,21,3.1"/>
	<path vector-effect="non-scaling-stroke" class="st4" d="M446.7,266l-13.2,0.3"/>
	<path vector-effect="non-scaling-stroke" class="st0" d="M433.5,266.2c0.1-3-1.1-5.3-3.6-6.9c-5.6-3.7-13.3-0.2-13.6,6.7   c-0.2,4.6,2.9,8.4,7.7,8.9c3.9,0.4,6.9-1.3,9-5.1"/>
	<path vector-effect="non-scaling-stroke" class="st4" d="M433.1,269.9l0.2,16.4"/>
	<path vector-effect="non-scaling-stroke" class="st3" d="M433.3,286.3l-0.5,0.5"/>
	<path vector-effect="non-scaling-stroke" class="st5" d="M446.4,272.2c-0.5,0.7-1.1,2-1.9,3.8c-1.9,4.2-5.4,7.6-10.5,10.2   c-0.1,0.2-0.3,0.3-0.7,0.1"/>
	<path vector-effect="non-scaling-stroke" class="st2" d="M433.5,266.2l-0.4,3.6"/>
	<path vector-effect="non-scaling-stroke" class="st0" d="M309.6,245.9c0-0.1-0.1-0.2-0.2-0.2c-4.1,0.1-8.2,0.1-12.1,0   c-0.1,0-0.2,0-0.3-0.1c-0.1-0.1-0.1-0.1-0.2-0.2c-0.1-0.1-0.1-0.1-0.1,0l0,41.2c0,0.4,0.2,0.6,0.6,0.6l11.8,0   c0.4,0,0.6-0.2,0.6-0.6L309.6,245.9"/>
	<path vector-effect="non-scaling-stroke" class="st0" d="M384.8,265.7c0.1,12.1-16.5,12-16.5,0.5c0-7.2,0-13.9,0-20.1   c0-0.4-0.2-0.6-0.6-0.6H356c-0.4,0-0.6,0.2-0.6,0.6c0.1,5.9,0,12.1,0,18.8c-0.1,9.1,3.9,17.2,11.9,20.9c8.3,3.8,16.1,2.7,23.2-3.2   c5.5-4.6,7.5-11.3,7.3-18.6c-0.1-6.3-0.1-12.2,0-17.8c0-0.4-0.2-0.6-0.6-0.6h-11.8c-0.4,0-0.6,0.2-0.6,0.6   C384.8,252.2,384.8,258.8,384.8,265.7"/>
</g>
<path class="st6" d="M0,0h706v517H0V0z M467.2,225c0-0.1-0.1-0.3-0.3-0.3h-12.4c-0.1,0-0.3,0.1-0.3,0.3v61.9c0,0.1,0.1,0.3,0.3,0.3  H467c0.1,0,0.3-0.1,0.3-0.3V225z M310.4,233.1c0-4-3.3-7.3-7.3-7.3s-7.3,3.3-7.3,7.3s3.3,7.3,7.3,7.3S310.4,237.1,310.4,233.1z   M256.7,286.2c-0.3-0.1-0.2,0.1,0.2,0.6c0.2,0.3,0.5,0.4,0.8,0.4c4.1,0,8.3,0,12.7,0c0.2,0,0.4-0.1,0.6-0.3c0.2-0.2,0.2-0.5,0.1-0.8  l21-58.8c0.1-0.3,0-0.5-0.4-0.5l-13.1,0c-0.3,0-0.6,0.2-0.7,0.5l-13.9,39.6l-13.9-39.5c-0.1-0.4-0.4-0.6-0.8-0.6l-12.9,0  c-0.2,0-0.4,0.2-0.4,0.5c0,0,0,0.1,0,0.1L256.7,286.2z M336.7,275.3c-0.3,1.4-1.8,2.3-3.2,2.2c-4-0.2-7.7-1.6-11-4.4  c-0.3-0.2-0.5-0.2-0.6,0.1l-5.6,8c-0.3,0.4-0.2,0.7,0.2,1c6.6,4.9,13.8,6.6,21.6,5.3c8.7-1.5,14-9.5,10.4-17.9  c-1.6-3.8-5.5-6.2-9.4-7.5c-2.9-0.9-5.5-2-7.9-3.2c-0.9-0.4-1.3-1.5-0.8-2.4c0.2-0.4,0.5-0.7,0.9-0.9c3.3-1.5,8.3,1.3,10.7,3.4  c0.4,0.3,0.7,0.3,0.9-0.1l5.7-8.7c0.1-0.2,0.1-0.4-0.1-0.5c0,0,0,0,0,0c-3.6-2.4-8.4-4.7-12.7-5c-8.8-0.6-19.1,3.6-18.1,14.2  c0.9,9.1,8.8,11.3,16.2,13.5c1,0.3,1.9,0.9,2.7,1.8C336.7,274.7,336.8,275,336.7,275.3z M432.8,286.8L446,287c0.4,0,0.5-0.2,0.5-0.5  l-0.2-14.3l0.4-6.2c-1.2-10.1-5.8-16.6-14.1-19.7c-3.8-1.4-7.4-1.9-10.8-1.3c-19.3,3.3-25.2,26.8-10.1,38.7  C417.7,288.2,424.6,289.3,432.8,286.8z M309.6,245.9c0-0.1-0.1-0.2-0.2-0.2c-4.1,0.1-8.2,0.1-12.1,0c-0.1,0-0.2,0-0.3-0.1  c-0.1-0.1-0.1-0.1-0.2-0.2c-0.1-0.1-0.1-0.1-0.1,0l0,41.2c0,0.4,0.2,0.6,0.6,0.6l11.8,0c0.4,0,0.6-0.2,0.6-0.6L309.6,245.9z   M384.8,265.7c0.1,12.1-16.5,12-16.5,0.5c0-7.2,0-13.9,0-20.1c0-0.4-0.2-0.6-0.6-0.6H356c-0.4,0-0.6,0.2-0.6,0.6  c0.1,5.9,0,12.1,0,18.8c-0.1,9.1,3.9,17.2,11.9,20.9c8.3,3.8,16.1,2.7,23.2-3.2c5.5-4.6,7.5-11.3,7.3-18.6c-0.1-6.3-0.1-12.2,0-17.8  c0-0.4-0.2-0.6-0.6-0.6h-11.8c-0.4,0-0.6,0.2-0.6,0.6C384.8,252.2,384.8,258.8,384.8,265.7z"/>
<path class="st7" d="M454.5,224.7H467c0.1,0,0.3,0.1,0.3,0.3v61.9c0,0.1-0.1,0.3-0.3,0.3h-12.4c-0.1,0-0.3-0.1-0.3-0.3V225  C454.3,224.8,454.4,224.7,454.5,224.7z"/>
<circle class="st8" cx="303.1" cy="233.1" r="7.3"/>
<path class="st7" d="M264.1,266.9c-0.1,0.1-0.1,0.2,0.1,0.3c-0.4,0.3-0.7,0.6-0.8,1c-1.9,5.8-4.1,11.8-6.6,18L236,227.5  c-0.1-0.2,0-0.5,0.3-0.6c0,0,0.1,0,0.1,0l12.9,0c0.4,0,0.7,0.2,0.8,0.6L264.1,266.9z"/>
<path class="st9" d="M271.1,286.2l-7-18.9c-0.1-0.1-0.2-0.2-0.1-0.3l13.9-39.6c0.1-0.3,0.4-0.5,0.7-0.5l13.1,0  c0.4,0,0.5,0.2,0.4,0.5L271.1,286.2z"/>
<path class="st7" d="M336.4,274.4c-0.8-0.9-1.7-1.5-2.7-1.8c-7.4-2.3-15.3-4.5-16.2-13.5c-1-10.7,9.3-14.8,18.1-14.2  c4.3,0.3,9.1,2.6,12.7,5c0.2,0.1,0.2,0.3,0.1,0.5c0,0,0,0,0,0l-5.7,8.7c-0.3,0.4-0.6,0.4-0.9,0.1c-2.4-2.1-7.4-4.9-10.7-3.4  c-0.9,0.4-1.3,1.5-0.9,2.4c0.2,0.4,0.5,0.7,0.9,0.9c2.4,1.2,5.1,2.2,7.9,3.2c3.9,1.3,7.8,3.7,9.4,7.5c3.5,8.4-1.7,16.4-10.4,17.9  c-7.8,1.4-15-0.4-21.6-5.3c-0.4-0.3-0.4-0.6-0.2-1l5.6-8c0.2-0.3,0.4-0.3,0.6-0.1c3.3,2.8,7,4.3,11,4.4c1.4,0,2.9-0.8,3.2-2.2  C336.8,275,336.7,274.7,336.4,274.4z"/>
<path class="st7" d="M446.7,266l-13.2,0.3c0.1-3-1.1-5.3-3.6-6.9c-5.6-3.7-13.3-0.2-13.6,6.7c-0.2,4.6,2.9,8.4,7.7,8.9  c3.9,0.4,6.9-1.3,9-5.1l0.2,16.4l-0.5,0.5c-8.2,2.5-15.2,1.4-21-3.1c-15.1-11.9-9.2-35.4,10.1-38.7c3.4-0.6,7-0.2,10.8,1.3  C440.9,249.3,445.6,255.9,446.7,266z"/>
<path class="st7" d="M309.6,245.9l0,40.8c0,0.4-0.2,0.6-0.6,0.6l-11.8,0c-0.4,0-0.6-0.2-0.6-0.6l0-41.2c0-0.1,0-0.2,0.1,0  c0.1,0.1,0.1,0.2,0.2,0.2c0.1,0.1,0.2,0.1,0.3,0.1c4,0.1,8,0.1,12.1,0C309.5,245.6,309.6,245.7,309.6,245.9z"/>
<path class="st7" d="M368.3,266.2c0,11.6,16.6,11.7,16.5-0.5c-0.1-6.9-0.1-13.5,0-19.6c0-0.4,0.2-0.6,0.6-0.6h11.8  c0.4,0,0.6,0.2,0.6,0.6c-0.1,5.6-0.1,11.5,0,17.8c0.1,7.3-1.8,14-7.3,18.6c-7.1,5.9-14.9,7-23.2,3.2c-8.1-3.7-12-11.8-11.9-20.9  c0.1-6.6,0.1-12.9,0-18.8c0-0.4,0.2-0.6,0.6-0.6h11.8c0.4,0,0.6,0.2,0.6,0.6C368.3,252.3,368.3,259,368.3,266.2z"/>
<path class="st6" d="M433.5,266.2l-0.4,3.6c-2.2,3.9-5.2,5.6-9,5.1c-4.8-0.6-7.9-4.4-7.7-8.9c0.3-6.9,8-10.5,13.6-6.7  C432.4,261,433.6,263.3,433.5,266.2z"/>
<path class="st10" d="M446.7,266l-0.4,6.2c-0.5,0.7-1.1,2-1.9,3.8c-1.9,4.2-5.4,7.6-10.5,10.2c-0.1,0.2-0.3,0.3-0.7,0.1l-0.2-16.4  l0.4-3.6L446.7,266z"/>
<path class="st11" d="M264.2,267.2l7,18.9c0.1,0.3,0.1,0.6-0.1,0.8c-0.1,0.2-0.3,0.3-0.6,0.3c-4.4,0-8.6,0-12.7,0  c-0.4,0-0.6-0.1-0.8-0.4c-0.4-0.6-0.5-0.8-0.2-0.6c2.5-6.1,4.7-12.1,6.6-18C263.4,267.9,263.7,267.6,264.2,267.2z"/>
<path class="st8" d="M446.5,286.3c0,0.4-0.2,0.5-0.5,0.5l-13,0.1l0.4-0.5c0.4,0.2,0.6,0.1,0.7-0.1c5-2.7,8.3-6.2,10.1-10.5  c0.8-1.9,1.3-3.2,1.8-3.9L446.5,286.3z"/>
</svg>