<svg width="100" height="100" viewBox="0 0 100 100" fill="none" xmlns="http://www.w3.org/2000/svg">
<path d="M49.584 66.2233C49.4184 66.3888 49.4184 66.5544 49.7495 66.72C49.0873 67.2167 48.5906 67.7133 48.425 68.3756C45.2794 77.978 41.6371 87.9114 37.4982 98.1761L3.06208 0.993359C2.89653 0.662243 3.06209 0.165558 3.55876 0H3.72431H25.0813C25.7436 0 26.2402 0.331127 26.4058 0.993359L49.584 66.2233Z" fill="#501DE5"/>
<path d="M61.1731 98.1761L49.584 66.8855C49.4184 66.72 49.2529 66.5544 49.4184 66.3889L72.431 0.827791C72.5966 0.331116 73.0932 0 73.5899 0H95.2781C95.9403 0 96.1058 0.331116 95.9403 0.827791L61.1731 98.1761Z" fill="#7A4AD8"/>
<path d="M49.7495 66.72L61.3386 98.0105C61.5041 98.5072 61.5041 99.0038 61.173 99.3349C61.0075 99.666 60.6763 99.8316 60.1797 99.8316C52.8951 99.8316 45.9416 99.8316 39.1537 99.8316C38.4915 99.8316 38.1604 99.666 37.8293 99.1694C37.1671 98.176 37.0015 97.8449 37.4982 98.176C41.6371 88.077 45.2794 78.1435 48.425 68.3756C48.425 67.8789 48.9217 67.3822 49.7495 66.72Z" fill="#501999"/>
</svg>
