<?xml version="1.0" encoding="utf-8"?>
<!-- Generator: Adobe Illustrator 27.9.0, SVG Export Plug-In . SVG Version: 6.00 Build 0)  -->
<svg version="1.1" id="unknown" xmlns:sketch="http://www.bohemiancoding.com/sketch/ns"
	 xmlns="http://www.w3.org/2000/svg" xmlns:xlink="http://www.w3.org/1999/xlink" x="0px" y="0px" viewBox="0 0 100 100"
	 style="enable-background:new 0 0 100 100;" xml:space="preserve">
<style type="text/css">
	.st0{fill:#F5D2F3;}
	.st1{clip-path:url(#SVGID_00000073679343957134399650000007044372524745756094_);}
	.st2{fill:#DC8AE6;}
	.st3{clip-path:url(#SVGID_00000116227946825033451830000007666642823410395568_);fill:#CA7BD4;}
	.st4{fill:#EF91F2;}
</style>
<g>
	<g>
		<g>
			<circle id="circle" class="st0" cx="50" cy="50" r="50"/>
		</g>
		<g>
			<defs>
				<circle id="SVGID_1_" cx="50" cy="50" r="50"/>
			</defs>
			<clipPath id="SVGID_00000040540667211038572670000002023954447561627327_">
				<use xlink:href="#SVGID_1_"  style="overflow:visible;"/>
			</clipPath>
			<g style="clip-path:url(#SVGID_00000040540667211038572670000002023954447561627327_);">
				<g>
					<path id="shoulders" class="st2" d="M63,71.9c0,4,4.7,5.2,7.1,5.8c7.6,2,22.8,5.9,22.8,5.9c3.2,1.1,5.7,3.5,7.1,6.6v9.8H0v-9.8
						c1.3-3.1,3.9-5.5,7.1-6.6c0,0,15.2-3.9,22.8-5.9c2.4-0.6,7.1-1.8,7.1-5.8S37,61,37,61h26C63,61,63,67.9,63,71.9z"/>
				</g>
				<g>
					<defs>
						<path id="SVGID_00000079461515630011079230000013692418061029372840_" d="M63,71.9c0,4,4.7,5.2,7.1,5.8
							c7.6,2,22.8,5.9,22.8,5.9c3.2,1.1,5.7,3.5,7.1,6.6v9.8H0v-9.8c1.3-3.1,3.9-5.5,7.1-6.6c0,0,15.2-3.9,22.8-5.9
							c2.4-0.6,7.1-1.8,7.1-5.8S37,61,37,61h26C63,61,63,67.9,63,71.9z"/>
					</defs>
					<clipPath id="SVGID_00000093872810064725923940000010768168698946769068_">
						<use xlink:href="#SVGID_00000079461515630011079230000013692418061029372840_"  style="overflow:visible;"/>
					</clipPath>
					<path id="head-shadow" style="clip-path:url(#SVGID_00000093872810064725923940000010768168698946769068_);fill:#CA7BD4;" d="
						M50.2,11c0.1,0,0.1,0,0.2,0l0,0c3.3,0,8.2,0.2,11.4,2c3.3,1.9,7.3,5.6,8.5,12.1c2.4,13.7-2.1,35.4-6.3,42.4
						c-4,6.7-9.8,9.2-13.5,9.4h-0.1c-0.1,0-0.1,0-0.2,0c-0.1,0-0.1,0-0.2,0h-0.1c-3.7-0.2-9.5-2.7-13.5-9.4
						c-4.2-7-8.7-28.7-6.3-42.4c1.2-6.5,5.2-10.2,8.5-12.1c3.2-1.8,8.1-2,11.4-2l0,0C50.1,11,50.1,11,50.2,11L50.2,11z"/>
				</g>
			</g>
		</g>
	</g>
	<path id="head" class="st4" d="M49.6,16c19.1,0,20.7,13.8,20.8,15.1c1.1,11.9-3,28.1-6.8,33.7c-4,5.9-9.8,8.1-13.5,8.3
		c-0.2,0-0.2,0-0.3,0s-0.1,0-0.2,0c-3.8-0.3-9.6-2.5-13.6-8.4c-3.8-5.6-7.9-21.8-6.8-33.8C29.3,29.7,30.5,16,49.6,16z"/>
</g>
</svg>
