<?xml version="1.0" standalone="no"?>
<!DOCTYPE svg PUBLIC "-//W3C//DTD SVG 20010904//EN"
 "http://www.w3.org/TR/2001/REC-SVG-20010904/DTD/svg10.dtd">
<svg version="1.0" xmlns="http://www.w3.org/2000/svg"
 width="700.000000pt" height="700.000000pt" viewBox="0 0 700.000000 700.000000"
 preserveAspectRatio="xMidYMid meet">
<metadata>
Created by potrace 1.14, written by Peter Selinger 2001-2017
</metadata>
<g transform="translate(0.000000,700.000000) scale(0.100000,-0.100000)"
fill="#000000" stroke="none">
<path d="M226 6984 c-26 -25 -40 26 139 -479 169 -475 223 -628 287 -810 33
-93 70 -199 83 -235 13 -36 49 -137 80 -225 31 -88 60 -169 64 -180 5 -11 16
-40 24 -65 7 -25 56 -162 107 -305 51 -143 96 -271 100 -285 5 -14 20 -56 35
-95 15 -38 31 -86 36 -105 6 -19 14 -44 19 -55 9 -18 79 -214 145 -405 31 -91
140 -399 175 -495 16 -44 66 -183 110 -310 71 -202 182 -514 365 -1030 29 -82
81 -229 115 -325 80 -226 143 -405 179 -505 16 -44 45 -125 64 -180 199 -560
260 -733 269 -749 7 -13 7 -16 -1 -12 -21 14 -11 -22 19 -63 17 -23 42 -46 55
-51 14 -5 346 -9 786 -9 l761 0 30 30 c27 27 30 35 25 73 -5 34 2 63 34 152
22 60 46 127 53 149 8 22 44 123 81 225 37 102 82 228 100 280 18 52 59 165
90 250 31 85 58 162 60 170 2 8 18 53 35 100 39 105 62 168 140 390 35 96 79
222 100 280 21 58 63 177 94 265 31 88 65 183 76 210 10 28 44 122 75 210 31
88 66 185 77 215 11 30 35 98 53 150 18 52 63 178 100 280 37 102 82 228 100
280 18 52 52 147 75 210 23 63 52 144 64 180 13 36 71 200 130 365 59 165 115
323 126 350 10 28 69 192 130 365 61 173 120 338 130 365 10 28 33 91 50 140
17 50 35 99 40 110 9 20 39 105 104 290 31 91 54 153 132 370 14 39 31 88 39
110 7 22 32 92 55 155 88 241 87 240 65 256 -16 12 -145 14 -798 14 -538 0
-785 -3 -799 -11 -28 -15 -31 -23 -202 -519 -26 -74 -51 -144 -56 -155 -4 -11
-27 -74 -50 -140 -42 -121 -83 -240 -145 -415 -18 -52 -50 -142 -70 -200 -20
-58 -49 -141 -65 -185 -16 -44 -49 -141 -75 -215 -25 -74 -50 -144 -55 -155
-4 -11 -34 -94 -65 -185 -31 -91 -63 -181 -70 -200 -8 -19 -32 -87 -53 -150
-41 -118 -150 -430 -252 -720 -32 -91 -88 -250 -125 -355 -36 -104 -79 -226
-95 -270 -15 -44 -74 -210 -129 -370 -56 -159 -109 -310 -118 -334 l-16 -44
-13 34 c-7 19 -26 72 -42 119 -31 86 -149 420 -247 695 -72 203 -192 541 -337
950 -66 187 -124 349 -128 360 -5 11 -22 59 -39 108 -17 48 -44 124 -60 170
-16 45 -66 186 -111 312 -45 127 -94 266 -110 310 -16 44 -79 222 -140 395
-61 173 -120 338 -130 365 -10 28 -55 154 -100 280 -45 127 -97 273 -115 325
-19 52 -37 107 -41 122 -3 14 -17 37 -31 50 l-25 23 -778 3 c-700 2 -780 1
-794 -14z"/>
</g>
</svg>
